<?xml version="1.0" encoding="utf-8"?>
<!-- Generator: Adobe Illustrator 16.0.0, SVG Export Plug-In . SVG Version: 6.00 Build 0)  -->
<!DOCTYPE svg PUBLIC "-//W3C//DTD SVG 1.1//EN" "http://www.w3.org/Graphics/SVG/1.1/DTD/svg11.dtd">
<svg version="1.1" id="Layer_1" xmlns="http://www.w3.org/2000/svg" xmlns:xlink="http://www.w3.org/1999/xlink" x="0px" y="0px"
	 width="274.846px" height="273.747px" viewBox="0 0 274.846 273.747" enable-background="new 0 0 274.846 273.747"
	 xml:space="preserve">
<g>
	<defs>
		<rect id="SVGID_1_" x="1.099" width="273.747" height="273.747"/>
	</defs>
	<clipPath id="SVGID_2_">
		<use xlink:href="#SVGID_1_"  overflow="visible"/>
	</clipPath>
</g>
<g>
	<g>
		<path fill="#FFFFFF" d="M161.057,99.683c0,0-2.676,2.324-6.648,2.876c0,0,3.852,9.415,3.328,13.677
			c-0.533,4.264,0.482,6.927,0.688,7.779c0.22,0.858,1.013,2.241,1.705,2.616c0.7,0.367,3.526,1.386,3.738,1.575
			c0.216,0.171,3.352,0,3.352,0s1.503,0.55,1.979-0.25c0.465-0.792,1.595-2.394,1.595-2.558c0-0.164-0.155-0.63,0-1.169
			c0.161-0.525,0.264-1.327,0.264-2.188c0-0.85,0-1.913,0-2.666c0-0.736-0.369-1.966-0.696-2.652
			C170.047,116.029,161.057,99.683,161.057,99.683z"/>
		<g>
			<path fill="#0B3F64" d="M132.142,83.342c0,8.809,7.16,15.958,15.979,15.958c8.804,0,15.947-7.148,15.947-15.958
				c0-8.813-7.144-15.961-15.947-15.961C139.301,67.381,132.142,74.529,132.142,83.342z"/>
			<g>
				<path fill="#0B3F64" d="M131.753,78.146l-12.305-1.714l18.618-21.212l28.984,3.269l-9.597,10.556
					c-2.657-1.744-5.888-2.791-9.332-2.791C140.635,66.254,134.063,71.478,131.753,78.146z"/>
			</g>
			<polygon fill="#0B3F64" points="124.766,82.678 124.66,77.157 126.177,77.379 126.177,82.678 128.481,82.678 128.481,92.137 
				126.177,92.137 124.927,92.137 122.644,92.137 122.644,82.678 			"/>
		</g>
		<path fill-rule="evenodd" clip-rule="evenodd" fill="#0B3F64" d="M144.256,133.058c-7.659-9.631-30.363-12.25-41.791-2.876
			c-5.404,4.843-10.064,9.581-10.131,17.079c-0.039,4.436,2.086,7.51,6.121,9.32c2.85,1.294,5.877,1.872,8.938,1.991
			c12.95,0.5,25.524-1.174,37.513-6.487c3.033-1.353,4.119-3.178,4.155-6.438c0.172-10.153-2.8-17.44-10.545-25.492
			c-5.152-5.74-9.785-10.445-19.083-17.58c-4.663-4.404-7.079-6.368-10.242-9.734c4.638,2.428,6.118,2.336,11.948,4.208
			c9.331,2.761,11.603,4.108,22.45,5.663c3.416,0.489,6.879,0.726,10.284-0.063c1.427-0.331,1.949,0.216,2.333,1.519
			c1.814,6.22,3.641,12.355,3.621,18.99c-0.014,3.283,4.146,2.463,6.119,4.035c1.167,0.911,1.821-0.786,2.536-1.719
			c1.94-2.516,1.776-4.732,0.149-7.473c-2.975-5.027-5.518-10.289-8.229-15.474c-0.32-0.609-0.922-1.164-0.14-1.98
			c5.672-5.866,7.504-13.425,9.109-21.057c0.522-2.402,0.938-4.821,1.508-7.24c0.981,5.609,1.686,11.253,2.639,16.813
			c2.353,13.627,0.43,27.28,1.208,40.879c0.045,0.725-0.327,1.761,0.306,2.097c0.821,0.416,1.394-0.617,2.021-1.059
			c4.924-3.463,7.31-8.306,7.615-14.219c0.104-2.094,0.017-4.19,0.017-6.385c0.943-0.078,1.383,0.683,1.897,1.244
			c3.462,3.744,4.073,8.276,3.096,13.014c-1.312,6.271-4.716,11.458-8.614,16.521c-5.183,6.751-11.337,12.328-18.174,17.215
			c-15.511,11.079-32.887,17.622-51.599,20.688c-8.621,1.422-17.308,1.722-25.934-0.03c-3.708-0.753-7.173-2.164-9.923-4.91
			c-4.34-4.321-4.557-9.578-3.102-15.052c1.911-7.279,6.021-13.344,10.936-18.879c6.943-7.81,14.886-14.28,24.833-17.913
			C108.808,122.017,130.814,114.823,144.256,133.058z"/>
		<path fill="#0B3F64" d="M192.573,128.207c0,0-15.48,35.747-40.98,47.07c0,0-2.038,0.819-2.352,3.241
			c-0.317,2.43-4.013,29.482-5.952,32.009C143.289,210.526,190.19,177.506,192.573,128.207z"/>
	</g>
	<path fill="#0B3F64" d="M185.029,79.437c0,0-7.025-15.138-14.149-7.187v10.428c0,0,3.327-9.376,12.345-1.98
		C192.251,88.093,185.029,79.437,185.029,79.437z"/>
	<polyline fill="#0B3F64" points="174.266,103.015 180.975,97.391 182.6,96.732 182.6,99.852 182.6,105.854 178.887,107.45 
		174.293,108.736 	"/>
</g>
</svg>
